<?xml version="1.0" standalone="no"?><svg xmlns="http://www.w3.org/2000/svg" viewBox="0 0 1440 320"><path fill="#F1B604" fill-opacity="1" d="M0,96L26.7,90.7C53.3,85,107,75,160,90.7C213.3,107,267,149,320,176C373.3,203,427,213,480,208C533.3,203,587,181,640,176C693.3,171,747,181,800,197.3C853.3,213,907,235,960,240C1013.3,245,1067,235,1120,229.3C1173.3,224,1227,224,1280,229.3C1333.3,235,1387,245,1413,250.7L1440,256L1440,320L1413.3,320C1386.7,320,1333,320,1280,320C1226.7,320,1173,320,1120,320C1066.7,320,1013,320,960,320C906.7,320,853,320,800,320C746.7,320,693,320,640,320C586.7,320,533,320,480,320C426.7,320,373,320,320,320C266.7,320,213,320,160,320C106.7,320,53,320,27,320L0,320Z"></path></svg>