<?xml version="1.0" standalone="no"?><svg xmlns="http://www.w3.org/2000/svg" viewBox="0 0 1440 320"><path fill="#F1B604" fill-opacity="1" d="M0,256L26.7,250.7C53.3,245,107,235,160,218.7C213.3,203,267,181,320,149.3C373.3,117,427,75,480,74.7C533.3,75,587,117,640,128C693.3,139,747,117,800,117.3C853.3,117,907,139,960,144C1013.3,149,1067,139,1120,133.3C1173.3,128,1227,128,1280,122.7C1333.3,117,1387,107,1413,101.3L1440,96L1440,320L1413.3,320C1386.7,320,1333,320,1280,320C1226.7,320,1173,320,1120,320C1066.7,320,1013,320,960,320C906.7,320,853,320,800,320C746.7,320,693,320,640,320C586.7,320,533,320,480,320C426.7,320,373,320,320,320C266.7,320,213,320,160,320C106.7,320,53,320,27,320L0,320Z"></path></svg>