<?xml version="1.0" standalone="no"?><svg xmlns="http://www.w3.org/2000/svg" viewBox="0 0 1440 320"><path fill="#F1B604" fill-opacity="1" d="M0,96L26.7,90.7C53.3,85,107,75,160,106.7C213.3,139,267,213,320,208C373.3,203,427,117,480,74.7C533.3,32,587,32,640,37.3C693.3,43,747,53,800,48C853.3,43,907,21,960,32C1013.3,43,1067,85,1120,90.7C1173.3,96,1227,64,1280,90.7C1333.3,117,1387,203,1413,245.3L1440,288L1440,320L1413.3,320C1386.7,320,1333,320,1280,320C1226.7,320,1173,320,1120,320C1066.7,320,1013,320,960,320C906.7,320,853,320,800,320C746.7,320,693,320,640,320C586.7,320,533,320,480,320C426.7,320,373,320,320,320C266.7,320,213,320,160,320C106.7,320,53,320,27,320L0,320Z"></path></svg>